<svg version="1.1" xmlns="http://www.w3.org/2000/svg" viewBox="0 0 3336.6 404">
	<g fill="#808080">
		<path d="M452.5,282.8c0.9,2.6,1.4,4.7,1.5,6.2c0.1,1.6-0.4,2.8-1.3,3.6c-0.9,0.8-2.5,1.3-4.7,1.6c-2.2,0.2-5.1,0.4-8.7,0.4c-3.6,0-6.5-0.1-8.7-0.3c-2.2-0.2-3.8-0.5-4.9-0.9c-1.1-0.4-1.9-1-2.5-1.7c-0.5-0.7-1-1.6-1.5-2.6l-19.5-55.3h-94.5l-18.6,54.6c-0.4,1.1-0.8,2-1.4,2.7c-0.6,0.8-1.4,1.4-2.5,1.9c-1.1,0.5-2.7,0.9-4.7,1.1c-2,0.2-4.7,0.4-8,0.4c-3.4,0-6.2-0.1-8.3-0.4c-2.2-0.3-3.7-0.8-4.6-1.7c-0.9-0.8-1.3-2-1.2-3.6c0.1-1.6,0.6-3.7,1.5-6.2l76.2-211.1c0.5-1.3,1.1-2.3,1.8-3.2c0.8-0.8,1.9-1.5,3.3-1.9c1.5-0.5,3.3-0.8,5.6-1c2.3-0.2,5.2-0.3,8.7-0.3c3.7,0,6.9,0.1,9.3,0.3c2.5,0.2,4.4,0.5,6,1c1.5,0.5,2.7,1.1,3.5,2c0.8,0.9,1.5,2,1.9,3.2L452.5,282.8z M354.7,96.4h-0.2l-39.2,113.3h79L354.7,96.4z"/>
		<path d="M626.2,288.9c0,0.9-0.2,1.8-0.5,2.5c-0.4,0.7-1.1,1.3-2.3,1.8c-1.2,0.5-2.8,0.8-4.9,1.1c-2.1,0.2-4.9,0.4-8.4,0.4c-3,0-5.5-0.1-7.5-0.4c-1.9-0.2-3.5-0.6-4.7-1.1c-1.2-0.5-2.1-1.3-2.7-2.2c-0.6-0.9-1.2-2.1-1.7-3.5l-20.9-53.6c-2.5-6.1-5-11.7-7.6-16.8s-5.8-9.5-9.4-13.2c-3.6-3.7-7.9-6.6-12.8-8.6c-4.9-2-10.8-3.1-17.7-3.1h-20.2v96.8c0,0.9-0.3,1.8-0.8,2.5c-0.5,0.7-1.3,1.3-2.5,1.7c-1.1,0.4-2.6,0.8-4.6,1.1c-1.9,0.3-4.4,0.4-7.3,0.4c-2.9,0-5.4-0.1-7.3-0.4c-1.9-0.3-3.5-0.6-4.7-1.1c-1.2-0.4-2-1-2.5-1.7c-0.5-0.7-0.7-1.5-0.7-2.5V78.5c0-4.6,1.2-7.8,3.6-9.6c2.4-1.8,4.9-2.7,7.6-2.7h48.3c5.7,0,10.5,0.1,14.3,0.4c3.8,0.3,7.2,0.6,10.3,1c8.8,1.5,16.5,3.9,23.3,7.2c6.7,3.3,12.4,7.4,17,12.5c4.6,5,8,10.8,10.3,17.3c2.3,6.5,3.4,13.7,3.4,21.5c0,7.6-1,14.4-3.1,20.5c-2,6-5,11.4-8.9,16c-3.9,4.6-8.5,8.6-13.9,12c-5.4,3.4-11.4,6.3-18.1,8.6c3.7,1.6,7.1,3.7,10.2,6.2c3,2.5,5.9,5.5,8.5,9c2.6,3.5,5.1,7.6,7.5,12.1c2.3,4.6,4.7,9.7,7,15.5l20.4,50.1c1.6,4.2,2.7,7.2,3.2,8.9C626,286.7,626.2,288,626.2,288.9z M580.7,129.3c0-8.9-2-16.4-6-22.6c-4-6.1-10.7-10.6-20-13.3c-2.9-0.8-6.2-1.4-9.9-1.8c-3.7-0.4-8.5-0.5-14.5-0.5h-25.5v76.6h29.5c8,0,14.8-1,20.6-2.9c5.8-1.9,10.6-4.6,14.5-8.1c3.9-3.5,6.7-7.5,8.5-12.2C579.8,139.9,580.7,134.8,580.7,129.3z"/>
		<path d="M828.9,176.5c0,19.7-2.5,36.9-7.6,51.6c-5,14.7-12.4,26.9-22,36.5c-9.7,9.7-21.5,16.9-35.6,21.7c-14.1,4.8-30.8,7.2-50.2,7.2h-48.1c-2.7,0-5.2-0.9-7.6-2.7c-2.4-1.8-3.6-5-3.6-9.6V78.5c0-4.6,1.2-7.8,3.6-9.6c2.4-1.8,4.9-2.7,7.6-2.7h51.5c19.7,0,36.3,2.5,49.9,7.6c13.6,5.1,25,12.4,34.2,22c9.2,9.5,16.2,21.1,20.9,34.7C826.5,144.1,828.9,159.4,828.9,176.5z M797.1,177.8c0-12.3-1.5-23.7-4.6-34.3c-3-10.6-7.8-19.8-14.3-27.5s-14.7-13.8-24.7-18.1c-10-4.3-22.8-6.5-38.5-6.5h-30.7v176.9h31.1c14.5,0,26.8-1.8,36.7-5.4c10-3.6,18.3-9.2,24.9-16.7c6.7-7.5,11.7-16.9,15-28.2C795.5,206.6,797.1,193.2,797.1,177.8z"/>
		<path d="M1030.5,209.5c0,13.8-2,26.1-6.1,37c-4,10.8-9.8,20-17.3,27.5c-7.5,7.5-16.6,13.2-27.4,17c-10.8,3.9-23,5.8-36.7,5.8c-12.5,0-23.9-1.8-34.3-5.4c-10.3-3.6-19.1-9-26.5-16.1c-7.4-7.1-13.1-16-17-26.6c-4-10.7-6-22.9-6-36.9v-141c0-0.9,0.2-1.8,0.7-2.5c0.5-0.7,1.3-1.3,2.5-1.7c1.2-0.4,2.7-0.8,4.6-1.1c1.9-0.3,4.3-0.4,7.4-0.4c2.8,0,5.2,0.1,7.2,0.4c2,0.3,3.5,0.6,4.7,1.1c1.1,0.4,1.9,1,2.4,1.7c0.5,0.7,0.7,1.5,0.7,2.5v137.4c0,10.5,1.3,19.7,3.9,27.6c2.6,7.8,6.3,14.4,11.2,19.6c4.9,5.2,10.7,9.1,17.6,11.8c6.9,2.6,14.5,4,23.1,4c8.8,0,16.6-1.3,23.4-3.9c6.9-2.6,12.6-6.4,17.4-11.6c4.7-5.2,8.4-11.5,10.9-19.1c2.5-7.6,3.8-16.5,3.8-26.7V70.8c0-0.9,0.2-1.8,0.7-2.5c0.5-0.7,1.3-1.3,2.5-1.7c1.2-0.4,2.7-0.8,4.7-1.1c1.9-0.3,4.4-0.4,7.3-0.4c2.8,0,5.2,0.1,7.1,0.4c1.9,0.3,3.5,0.6,4.6,1.1c1.1,0.4,1.9,1,2.5,1.7c0.5,0.7,0.8,1.5,0.8,2.5V209.5z"/>
		<path d="M1104.8,288.9c0,0.9-0.2,1.8-0.7,2.5c-0.5,0.7-1.3,1.3-2.5,1.7c-1.2,0.4-2.7,0.8-4.7,1.1c-1.9,0.3-4.4,0.4-7.3,0.4c-2.8,0-5.2-0.1-7.2-0.4c-2-0.3-3.6-0.6-4.7-1.1c-1.2-0.4-2-1-2.5-1.7c-0.5-0.7-0.7-1.5-0.7-2.5V70.8c0-0.9,0.3-1.8,0.8-2.5c0.5-0.7,1.4-1.3,2.6-1.7c1.2-0.4,2.8-0.8,4.7-1.1c1.9-0.3,4.2-0.4,6.9-0.4c2.9,0,5.4,0.1,7.3,0.4c1.9,0.3,3.5,0.6,4.7,1.1c1.2,0.4,2,1,2.5,1.7c0.5,0.7,0.7,1.5,0.7,2.5V288.9z"/>
		<path d="M1321.2,281c0,2.3-0.4,4.3-1.2,6c-0.8,1.6-1.8,3-3.1,4c-1.3,1.1-2.7,1.8-4.3,2.3s-3.1,0.7-4.7,0.7h-10c-3.2,0-5.9-0.3-8.3-1c-2.4-0.6-4.6-1.8-6.7-3.5c-2.1-1.7-4.2-4-6.4-6.9c-2.1-2.9-4.4-6.7-6.7-11.2l-69.3-129.3c-3.6-6.7-7.3-13.7-11-21c-3.7-7.3-7.1-14.4-10.3-21.3h-0.4c0.2,8.4,0.4,17,0.5,25.8c0.1,8.8,0.2,17.5,0.2,26.2v137.2c0,0.8-0.2,1.6-0.7,2.4c-0.5,0.8-1.3,1.3-2.5,1.8c-1.2,0.4-2.7,0.8-4.6,1.1c-1.9,0.3-4.4,0.4-7.3,0.4c-3,0-5.4-0.1-7.3-0.4c-1.9-0.3-3.4-0.6-4.5-1.1c-1.1-0.4-1.9-1-2.4-1.8c-0.5-0.8-0.7-1.6-0.7-2.4V79.2c0-4.7,1.3-8,4-10c2.7-2,5.6-3,8.7-3h14.9c3.5,0,6.4,0.3,8.8,0.9c2.4,0.6,4.5,1.6,6.3,2.9c1.9,1.3,3.7,3.2,5.4,5.6c1.8,2.4,3.6,5.4,5.5,9l53.3,99.8c3.3,6.1,6.5,12,9.5,17.8c3.1,5.8,6,11.5,8.8,17.1c2.8,5.6,5.6,11.2,8.4,16.6c2.8,5.4,5.5,10.9,8.2,16.4h0.2c-0.2-9.2-0.4-18.9-0.4-28.9c-0.1-10-0.1-19.6-0.1-28.9V71.3c0-0.8,0.2-1.6,0.7-2.3c0.5-0.7,1.3-1.3,2.5-1.8s2.7-0.9,4.6-1.1c1.9-0.2,4.4-0.4,7.5-0.4c2.7,0,5.1,0.1,7,0.4c2,0.2,3.5,0.6,4.6,1.1c1.1,0.5,1.9,1.1,2.4,1.8c0.5,0.7,0.7,1.5,0.7,2.3V281z"/>
		<path d="M1556.2,177.2c0,18.4-2.2,35-6.5,49.7c-4.3,14.8-10.8,27.3-19.4,37.7c-8.6,10.4-19.4,18.3-32.4,23.9s-28.2,8.3-45.5,8.3c-17.1,0-31.9-2.5-44.4-7.6c-12.5-5.1-22.8-12.5-30.9-22.2c-8.1-9.7-14.2-21.8-18.2-36.2c-4-14.4-6-31-6-49.7c0-17.9,2.2-34.2,6.5-48.8c4.3-14.6,10.8-27.1,19.5-37.3c8.7-10.2,19.5-18.1,32.5-23.7c13-5.6,28.2-8.3,45.5-8.3c16.7,0,31.3,2.5,43.7,7.6c12.4,5,22.7,12.4,31,22c8.3,9.7,14.4,21.6,18.4,35.8S1556.2,158.8,1556.2,177.2z M1524.2,179.3c0-12.9-1.1-24.9-3.4-35.9s-6.1-20.7-11.4-28.8c-5.3-8.1-12.4-14.5-21.3-19.1s-19.9-6.9-33-6.9c-13.1,0-24.1,2.5-33,7.4c-8.9,4.9-16.1,11.5-21.7,19.7c-5.6,8.2-9.5,17.8-11.9,28.7c-2.4,11-3.6,22.5-3.6,34.5c0,13.3,1.1,25.6,3.3,36.9c2.2,11.2,6,20.9,11.2,29.1c5.3,8.1,12.3,14.5,21.1,19c8.8,4.5,19.9,6.8,33.2,6.8c13.2,0,24.3-2.5,33.3-7.4c9-4.9,16.3-11.6,21.8-19.9c5.5-8.4,9.4-18.1,11.8-29.1C1523.1,203.3,1524.2,191.6,1524.2,179.3z"/>
		<path d="M1719.9,352c0,0.9-0.2,1.8-0.6,2.5c-0.4,0.7-1.1,1.3-2.2,1.8c-1.1,0.5-2.5,0.8-4.2,1.1c-1.8,0.2-4,0.4-6.7,0.4c-2.6,0-4.7-0.1-6.5-0.4c-1.8-0.2-3.2-0.6-4.2-1.1c-1.1-0.5-1.8-1.1-2.2-1.8c-0.4-0.7-0.6-1.5-0.6-2.5V47.1c0-0.8,0.2-1.6,0.6-2.3c0.4-0.7,1.1-1.3,2.2-1.8c1.1-0.5,2.5-0.8,4.2-1.1c1.8-0.2,3.9-0.4,6.5-0.4c2.7,0,4.9,0.1,6.7,0.4c1.8,0.2,3.2,0.6,4.2,1.1c1.1,0.5,1.8,1.1,2.2,1.8c0.4,0.7,0.6,1.5,0.6,2.3V352z"/>
		<path d="M2110.2,288.9c0,0.9-0.2,1.8-0.7,2.5c-0.5,0.7-1.3,1.3-2.5,1.7c-1.2,0.4-2.7,0.8-4.6,1.1c-1.9,0.3-4.3,0.4-7.3,0.4c-2.8,0-5.2-0.1-7.1-0.4c-2-0.3-3.6-0.6-4.7-1.1c-1.1-0.4-2-1-2.4-1.7c-0.5-0.7-0.7-1.5-0.7-2.5V91h-0.4l-80.1,198.8c-0.4,0.8-0.9,1.5-1.5,2.1c-0.6,0.6-1.6,1.1-2.8,1.5s-2.7,0.7-4.4,0.9c-1.7,0.2-3.7,0.3-6.1,0.3c-2.5,0-4.6-0.1-6.3-0.4c-1.8-0.2-3.2-0.6-4.4-1c-1.2-0.4-2.1-0.9-2.7-1.5c-0.6-0.6-1.1-1.2-1.3-1.9L1893.4,91h-0.2v198c0,0.9-0.2,1.8-0.7,2.5c-0.5,0.7-1.3,1.3-2.5,1.7c-1.2,0.4-2.8,0.8-4.7,1.1c-1.9,0.3-4.4,0.4-7.4,0.4c-2.9,0-5.3-0.1-7.2-0.4c-1.9-0.3-3.5-0.6-4.6-1.1c-1.1-0.4-1.9-1-2.4-1.7c-0.4-0.7-0.6-1.5-0.6-2.5v-209c0-4.9,1.3-8.4,3.9-10.5c2.6-2.1,5.5-3.2,8.7-3.2h18.5c3.8,0,7.1,0.4,10,1.1s5.3,1.8,7.5,3.3c2.1,1.5,3.9,3.5,5.4,5.8c1.4,2.3,2.7,5.1,3.7,8.3l65,164.6h0.9l67.6-164.1c1.3-3.5,2.7-6.5,4.3-9c1.5-2.5,3.2-4.4,5.1-5.9c1.8-1.5,3.9-2.5,6.2-3.2c2.3-0.6,4.9-1,7.9-1h19.5c1.8,0,3.5,0.3,5.1,0.8s3,1.3,4.1,2.5c1.1,1.1,2.1,2.5,2.8,4.2c0.7,1.7,1.1,3.8,1.1,6.2V288.9z"/>
		<path d="M2298.5,208.3c0,12.9-1.7,24.7-5.1,35.6c-3.4,10.8-8.5,20.2-15.2,28c-6.7,7.8-15.2,14-25.3,18.4c-10.1,4.4-21.9,6.6-35.2,6.6c-13,0-24.3-1.9-34-5.8c-9.7-3.9-17.7-9.5-24.2-16.9c-6.4-7.4-11.2-16.3-14.4-26.9c-3.2-10.5-4.7-22.5-4.7-35.8c0-12.9,1.7-24.7,5-35.6c3.3-10.8,8.4-20.2,15.1-28c6.7-7.8,15.1-13.9,25.2-18.3c10.1-4.3,21.8-6.5,35.3-6.5c13,0,24.3,1.9,34,5.8c9.7,3.9,17.7,9.5,24.2,16.9c6.4,7.4,11.3,16.3,14.5,26.9C2296.9,183.2,2298.5,195.1,2298.5,208.3z M2268.4,210.3c0-8.5-0.8-16.6-2.4-24.2c-1.6-7.6-4.2-14.3-7.9-20c-3.7-5.7-8.6-10.3-14.9-13.6c-6.3-3.3-14.1-5-23.4-5c-8.6,0-16,1.5-22.2,4.6c-6.2,3-11.3,7.4-15.3,12.9c-4,5.6-7,12.1-8.9,19.8c-1.9,7.6-2.9,15.9-2.9,24.9c0,8.7,0.8,16.8,2.4,24.4c1.6,7.6,4.3,14.3,8,19.9c3.7,5.7,8.7,10.2,15,13.5c6.3,3.3,14.1,5,23.4,5c8.5,0,15.9-1.5,22.2-4.6c6.3-3,11.4-7.3,15.4-12.8c4-5.5,7-12.1,8.9-19.7C2267.5,227.8,2268.4,219.4,2268.4,210.3z"/>
		<path d="M2470.8,208c0,13.7-1.5,26-4.5,37c-3,11-7.4,20.3-13.2,28c-5.8,7.7-12.9,13.6-21.3,17.7c-8.4,4.1-18.1,6.1-29,6.1c-5,0-9.7-0.5-14-1.5c-4.3-1-8.5-2.6-12.6-4.8c-4.1-2.2-8.2-5-12.3-8.4c-4.1-3.4-8.4-7.5-13-12.3v19.3c0,0.9-0.2,1.8-0.7,2.5c-0.5,0.7-1.2,1.3-2.3,1.7s-2.4,0.7-4,1c-1.6,0.2-3.6,0.4-6.1,0.4c-2.3,0-4.3-0.1-6-0.4c-1.6-0.2-3-0.6-4-1s-1.8-1-2.1-1.7c-0.4-0.7-0.5-1.5-0.5-2.5V54.5c0-0.9,0.2-1.8,0.6-2.5c0.4-0.7,1.2-1.3,2.3-1.8c1.1-0.5,2.6-0.8,4.5-1.1c1.9-0.2,4.2-0.4,7-0.4c2.9,0,5.3,0.1,7.2,0.4c1.9,0.2,3.3,0.6,4.4,1.1c1.1,0.5,1.8,1.1,2.3,1.8c0.5,0.7,0.7,1.5,0.7,2.5v94.7c4.7-4.8,9.2-8.8,13.6-12.1c4.4-3.3,8.7-5.9,12.9-8c4.2-2,8.4-3.5,12.6-4.5c4.2-0.9,8.7-1.4,13.3-1.4c11.5,0,21.3,2.3,29.4,6.9c8.1,4.6,14.8,10.7,19.8,18.4c5.1,7.7,8.8,16.7,11.2,27C2469.6,185.6,2470.8,196.5,2470.8,208z M2440.7,211.3c0-8.1-0.6-15.9-1.9-23.5c-1.2-7.6-3.4-14.3-6.5-20.2c-3.1-5.9-7.1-10.6-12.2-14.1c-5.1-3.6-11.4-5.4-18.9-5.4c-3.8,0-7.5,0.5-11.1,1.6c-3.7,1.1-7.4,2.8-11.1,5.3c-3.8,2.5-7.7,5.6-11.8,9.5s-8.4,8.7-13,14.6V242c8,9.7,15.7,17.1,23,22.2c7.3,5.1,14.9,7.6,22.8,7.6c7.3,0,13.5-1.8,18.7-5.3c5.2-3.5,9.4-8.2,12.6-14c3.2-5.8,5.6-12.3,7.1-19.5C2440,226,2440.7,218.7,2440.7,211.3z"/>
		<path d="M2530.8,77.6c0,6.8-1.3,11.4-3.9,13.9c-2.6,2.5-7.3,3.7-14.2,3.7c-6.8,0-11.4-1.2-14-3.6c-2.5-2.4-3.8-6.9-3.8-13.6c0-6.8,1.3-11.4,3.9-13.9c2.6-2.5,7.3-3.7,14.2-3.7c6.8,0,11.4,1.2,14,3.6C2529.6,66.4,2530.8,71,2530.8,77.6z M2527.5,289.1c0,0.9-0.2,1.7-0.7,2.4c-0.5,0.6-1.2,1.2-2.3,1.7c-1.1,0.5-2.5,0.8-4.4,1.1c-1.9,0.2-4.3,0.4-7.2,0.4c-2.8,0-5.2-0.1-7-0.4c-1.9-0.2-3.4-0.6-4.5-1.1c-1.1-0.5-1.9-1-2.3-1.7c-0.4-0.6-0.6-1.4-0.6-2.4V131c0-0.8,0.2-1.6,0.6-2.3c0.4-0.7,1.2-1.3,2.3-1.8c1.1-0.5,2.6-0.8,4.5-1.1c1.9-0.2,4.2-0.4,7-0.4c2.9,0,5.3,0.1,7.2,0.4c1.9,0.2,3.3,0.6,4.4,1.1c1.1,0.5,1.8,1.1,2.3,1.8c0.5,0.7,0.7,1.5,0.7,2.3V289.1z"/>
		<path d="M2594.2,289.1c0,0.9-0.2,1.7-0.7,2.4c-0.5,0.6-1.2,1.2-2.3,1.7c-1.1,0.5-2.5,0.8-4.4,1.1c-1.9,0.2-4.3,0.4-7.2,0.4c-2.8,0-5.2-0.1-7-0.4c-1.9-0.2-3.4-0.6-4.5-1.1c-1.1-0.5-1.9-1-2.3-1.7c-0.4-0.6-0.6-1.4-0.6-2.4V54.5c0-0.9,0.2-1.8,0.6-2.5c0.4-0.7,1.2-1.3,2.3-1.8c1.1-0.5,2.6-0.8,4.5-1.1c1.9-0.2,4.2-0.4,7-0.4c2.9,0,5.3,0.1,7.2,0.4c1.9,0.2,3.3,0.6,4.4,1.1c1.1,0.5,1.8,1.1,2.3,1.8c0.5,0.7,0.7,1.5,0.7,2.5V289.1z"/>
		<path d="M2766.8,203.2c0,4.6-1.1,7.8-3.4,9.7c-2.3,1.9-4.9,2.9-7.9,2.9h-104.1c0,8.8,0.9,16.7,2.6,23.7c1.8,7,4.7,13.1,8.8,18.1c4.1,5,9.5,8.9,16.1,11.6c6.6,2.7,14.7,4,24.2,4c7.5,0,14.2-0.6,20.1-1.8c5.9-1.2,11-2.6,15.3-4.1c4.3-1.5,7.8-2.9,10.6-4.1s4.9-1.8,6.3-1.8c0.8,0,1.6,0.2,2.2,0.6c0.6,0.4,1.1,1,1.5,1.8c0.4,0.8,0.6,2,0.8,3.4c0.2,1.5,0.3,3.2,0.3,5.4c0,1.5-0.1,2.8-0.2,4c-0.1,1.1-0.3,2.1-0.4,3c-0.2,0.9-0.5,1.7-0.9,2.4c-0.4,0.7-0.9,1.4-1.6,2c-0.6,0.6-2.5,1.7-5.7,3.2c-3.2,1.5-7.3,2.9-12.3,4.3c-5,1.4-10.9,2.7-17.5,3.8c-6.6,1.1-13.7,1.7-21.2,1.7c-13,0-24.4-1.8-34.2-5.4c-9.8-3.6-18-9-24.7-16.2c-6.7-7.1-11.7-16.1-15.1-26.9c-3.4-10.8-5.1-23.3-5.1-37.6c0-13.6,1.8-25.8,5.3-36.6c3.5-10.8,8.6-20,15.2-27.6c6.6-7.6,14.6-13.3,24-17.4c9.4-4,19.8-6.1,31.4-6.1c12.4,0,23,2,31.7,6c8.7,4,15.9,9.3,21.5,16.1c5.6,6.7,9.7,14.6,12.4,23.7c2.6,9.1,4,18.8,4,29.1V203.2z M2737.7,194.6c0.4-15.2-3-27.2-10.2-35.8c-7.1-8.7-17.7-13-31.7-13c-7.2,0-13.5,1.3-18.9,4c-5.4,2.7-10,6.3-13.6,10.7c-3.7,4.5-6.5,9.6-8.5,15.5c-2,5.9-3.1,12.1-3.4,18.5H2737.7z"/>
		<path d="M2979.7,289.3c0,1.4-0.5,2.5-1.4,3.2c-0.9,0.7-2.2,1.2-3.9,1.6c-1.6,0.4-4,0.5-7.2,0.5c-3,0-5.5-0.2-7.3-0.5c-1.8-0.4-3.1-0.9-4-1.6c-0.8-0.7-1.2-1.8-1.2-3.2v-15.8c-6.9,7.4-14.6,13.1-23.1,17.2c-8.5,4.1-17.5,6.1-27,6.1c-8.3,0-15.8-1.1-22.6-3.2c-6.7-2.2-12.5-5.3-17.2-9.4c-4.7-4.1-8.4-9.1-11.1-15.1c-2.6-6-4-12.8-4-20.4c0-8.9,1.8-16.6,5.4-23.2c3.6-6.6,8.8-12,15.6-16.3c6.8-4.3,15.1-7.6,24.9-9.7c9.8-2.2,20.9-3.2,33.2-3.2h21.8v-12.3c0-6.1-0.6-11.5-1.9-16.2c-1.3-4.7-3.4-8.6-6.2-11.7c-2.9-3.1-6.6-5.4-11.2-7c-4.6-1.6-10.2-2.4-16.9-2.4c-7.1,0-13.6,0.9-19.2,2.5c-5.7,1.7-10.7,3.6-14.9,5.6c-4.3,2-7.8,3.9-10.7,5.6c-2.9,1.7-5,2.5-6.4,2.5c-0.9,0-1.8-0.2-2.5-0.7c-0.7-0.5-1.3-1.2-1.8-2.1c-0.5-0.9-0.9-2.1-1.1-3.6c-0.2-1.5-0.4-3.1-0.4-4.8c0-2.9,0.2-5.2,0.6-6.9c0.4-1.7,1.4-3.3,3-4.8c1.6-1.5,4.3-3.3,8.2-5.4c3.9-2,8.3-3.9,13.3-5.6c5-1.7,10.5-3.1,16.5-4.2c6-1.1,12-1.7,18.1-1.7c11.4,0,21,1.3,29,3.9c8,2.6,14.4,6.4,19.3,11.3c4.9,5,8.5,11.2,10.7,18.5c2.2,7.4,3.3,16,3.3,25.8V289.3z M2950.9,217.1h-24.8c-8,0-14.9,0.7-20.7,2c-5.9,1.3-10.7,3.3-14.6,6c-3.9,2.6-6.7,5.8-8.5,9.5c-1.8,3.7-2.7,7.9-2.7,12.7c0,8.2,2.6,14.7,7.8,19.6c5.2,4.9,12.5,7.3,21.9,7.3c7.6,0,14.7-1.9,21.2-5.8s13.3-9.8,20.5-17.7V217.1z"/>
		<path d="M3162.5,207.6c0,13.8-1.5,26.2-4.5,37.2c-3,11-7.4,20.3-13.2,28c-5.8,7.7-13,13.6-21.5,17.7c-8.5,4.2-18.3,6.2-29.3,6.2c-4.7,0-9-0.5-13-1.4c-4-0.9-7.9-2.4-11.7-4.4c-3.8-2-7.6-4.5-11.3-7.6c-3.7-3-7.7-6.6-11.9-10.7v79c0,0.9-0.2,1.8-0.7,2.5c-0.5,0.7-1.2,1.3-2.3,1.8c-1.1,0.5-2.5,0.8-4.4,1.1c-1.9,0.2-4.3,0.4-7.2,0.4c-2.8,0-5.2-0.1-7-0.4c-1.9-0.2-3.4-0.6-4.5-1.1c-1.1-0.5-1.9-1.1-2.3-1.8c-0.4-0.7-0.6-1.5-0.6-2.5V131c0-1.1,0.2-1.9,0.5-2.5c0.4-0.6,1.1-1.2,2.1-1.7c1.1-0.5,2.4-0.8,4-1c1.6-0.2,3.6-0.3,6-0.3c2.5,0,4.5,0.1,6.1,0.3c1.6,0.2,2.9,0.5,4,1c1.1,0.5,1.8,1,2.2,1.7c0.4,0.6,0.6,1.5,0.6,2.5v21.3c4.8-4.9,9.4-9.2,13.9-12.8c4.4-3.6,8.9-6.6,13.4-9c4.5-2.4,9.1-4.2,13.9-5.4s9.7-1.8,15-1.8c11.5,0,21.3,2.2,29.3,6.7c8.1,4.5,14.7,10.5,19.8,18.3c5.1,7.7,8.8,16.7,11.2,27C3161.4,185.3,3162.5,196.1,3162.5,207.6z M3132.5,211c0-8.1-0.6-15.9-1.9-23.4c-1.2-7.6-3.4-14.3-6.4-20.1c-3-5.9-7-10.5-12.1-14.1s-11.4-5.3-18.9-5.3c-3.8,0-7.5,0.6-11.1,1.7c-3.7,1.1-7.4,2.9-11.1,5.3c-3.8,2.4-7.7,5.6-11.8,9.5c-4.1,3.9-8.5,8.8-13.1,14.5v62.9c8,9.7,15.6,17.2,22.8,22.3c7.2,5.2,14.7,7.7,22.6,7.7c7.3,0,13.6-1.8,18.8-5.3c5.2-3.5,9.5-8.2,12.7-14.1c3.2-5.9,5.6-12.4,7.2-19.7C3131.7,225.7,3132.5,218.3,3132.5,211z"/>
		<path d="M3335.7,207.6c0,13.8-1.5,26.2-4.5,37.2c-3,11-7.4,20.3-13.2,28c-5.8,7.7-13,13.6-21.5,17.7c-8.5,4.2-18.3,6.2-29.3,6.2c-4.7,0-9-0.5-13-1.4c-4-0.9-7.9-2.4-11.7-4.4c-3.8-2-7.6-4.5-11.3-7.6c-3.7-3-7.7-6.6-11.9-10.7v79c0,0.9-0.2,1.8-0.7,2.5c-0.5,0.7-1.2,1.3-2.3,1.8c-1.1,0.5-2.5,0.8-4.4,1.1c-1.9,0.2-4.3,0.4-7.2,0.4c-2.8,0-5.2-0.1-7-0.4c-1.9-0.2-3.4-0.6-4.5-1.1c-1.1-0.5-1.9-1.1-2.3-1.8c-0.4-0.7-0.6-1.5-0.6-2.5V131c0-1.1,0.2-1.9,0.5-2.5c0.4-0.6,1.1-1.2,2.1-1.7c1.1-0.5,2.4-0.8,4-1c1.6-0.2,3.6-0.3,6-0.3c2.5,0,4.5,0.1,6.1,0.3c1.6,0.2,2.9,0.5,4,1c1.1,0.5,1.8,1,2.2,1.7c0.4,0.6,0.6,1.5,0.6,2.5v21.3c4.8-4.9,9.4-9.2,13.9-12.8c4.4-3.6,8.9-6.6,13.4-9c4.5-2.4,9.1-4.2,13.9-5.4s9.7-1.8,15-1.8c11.5,0,21.3,2.2,29.3,6.7c8.1,4.5,14.7,10.5,19.8,18.3c5.1,7.7,8.8,16.7,11.2,27C3334.5,185.3,3335.7,196.1,3335.7,207.6z M3305.7,211c0-8.1-0.6-15.9-1.9-23.4c-1.2-7.6-3.4-14.3-6.4-20.1c-3-5.9-7-10.5-12.1-14.1s-11.4-5.3-18.9-5.3c-3.8,0-7.5,0.6-11.1,1.7c-3.7,1.1-7.4,2.9-11.1,5.3c-3.8,2.4-7.7,5.6-11.8,9.5c-4.1,3.9-8.5,8.8-13.1,14.5v62.9c8,9.7,15.6,17.2,22.8,22.3c7.2,5.2,14.7,7.7,22.6,7.7c7.3,0,13.6-1.8,18.8-5.3c5.2-3.5,9.5-8.2,12.7-14.1c3.2-5.9,5.6-12.4,7.2-19.7C3304.9,225.7,3305.7,218.3,3305.7,211z"/>
	</g>
	<path fill="#B72036" d="M265.9,53.8c-7.3-7.4-25.7-22.7-50.6-22.6c-35.2,0.1-62.7,30.2-70.1,30.2c-7.3,0-44.8-52.6-104-19.1C9.5,60-8,101.3,3.6,160.6c21.3,109.8,123.1,184,141.5,184c27.2,0,85.9-64.1,92.8-74.7c6.7-10.4-7-44-15.7-35.9c-4.9,4.6-8.2,13.1-25.6,32.1c-14,15.3-35.9,39.5-51.5,39.5c-18.7,0-91.6-70.3-103.9-152.6c-2.1-14.1-8-66,26.1-78.4c44.5-16.2,67.4,29.5,78.2,29.5c11,0,30.8-40.5,70.6-32.4c23.8,4.8,30.8,24.7,37.9,25.3C258.8,97.4,274.9,63,265.9,53.8z"/>
</svg>
