<svg version="1.1" xmlns="http://www.w3.org/2000/svg" xmlns:xlink="http://www.w3.org/1999/xlink" x="0px" y="0px" viewBox="0 0 1592 360">
	<g id="arduino" fill="#808080">
		<path d="M469.7,281.6c0.9,2.6,1.4,4.7,1.5,6.2c0.1,1.6-0.4,2.8-1.3,3.6c-0.9,0.8-2.5,1.3-4.7,1.6
			c-2.2,0.2-5.1,0.4-8.7,0.4c-3.6,0-6.5-0.1-8.7-0.3c-2.2-0.2-3.8-0.5-4.9-0.9c-1.1-0.4-1.9-1-2.5-1.7c-0.5-0.7-1-1.6-1.5-2.6
			l-19.5-55.3H325l-18.6,54.6c-0.4,1.1-0.8,2-1.4,2.7c-0.6,0.8-1.4,1.4-2.5,1.9c-1.1,0.5-2.7,0.9-4.7,1.1c-2,0.2-4.7,0.4-8,0.4
			c-3.4,0-6.2-0.1-8.3-0.4c-2.2-0.3-3.7-0.8-4.6-1.7c-0.9-0.8-1.3-2-1.2-3.6c0.1-1.6,0.6-3.7,1.5-6.2l76.2-211.1
			c0.5-1.3,1.1-2.3,1.8-3.2c0.8-0.8,1.9-1.5,3.3-1.9c1.5-0.5,3.3-0.8,5.6-1c2.3-0.2,5.2-0.3,8.7-0.3c3.7,0,6.9,0.1,9.3,0.3
			c2.5,0.2,4.4,0.5,6,1c1.5,0.5,2.7,1.1,3.5,2c0.8,0.9,1.5,2,1.9,3.2L469.7,281.6z M371.9,95.3h-0.2l-39.2,113.3h79L371.9,95.3z"/>
		<path d="M643.4,287.8c0,0.9-0.2,1.8-0.5,2.5c-0.4,0.7-1.1,1.3-2.3,1.8c-1.2,0.5-2.8,0.8-4.9,1.1
			c-2.1,0.2-4.9,0.4-8.4,0.4c-3,0-5.5-0.1-7.5-0.4c-1.9-0.2-3.5-0.6-4.7-1.1c-1.2-0.5-2.1-1.3-2.7-2.2c-0.6-0.9-1.2-2.1-1.7-3.5
			l-20.9-53.6c-2.5-6.1-5-11.7-7.6-16.8s-5.8-9.5-9.4-13.2c-3.6-3.7-7.9-6.6-12.8-8.6c-4.9-2-10.8-3.1-17.7-3.1H522v96.8
			c0,0.9-0.3,1.8-0.8,2.5c-0.5,0.7-1.3,1.3-2.5,1.7c-1.1,0.4-2.6,0.8-4.6,1.1c-1.9,0.3-4.4,0.4-7.3,0.4c-2.9,0-5.4-0.1-7.3-0.4
			c-1.9-0.3-3.5-0.6-4.7-1.1c-1.2-0.4-2-1-2.5-1.7c-0.5-0.7-0.7-1.5-0.7-2.5V77.3c0-4.6,1.2-7.8,3.6-9.6c2.4-1.8,4.9-2.7,7.6-2.7
			h48.3c5.7,0,10.5,0.1,14.3,0.4c3.8,0.3,7.2,0.6,10.3,1c8.8,1.5,16.5,3.9,23.3,7.2c6.7,3.3,12.4,7.4,17,12.5c4.6,5,8,10.8,10.3,17.3
			c2.3,6.5,3.4,13.7,3.4,21.5c0,7.6-1,14.4-3.1,20.5c-2,6-5,11.4-8.9,16c-3.9,4.6-8.5,8.6-13.9,12c-5.4,3.4-11.4,6.3-18.1,8.6
			c3.7,1.6,7.1,3.7,10.2,6.2c3,2.5,5.9,5.5,8.5,9c2.6,3.5,5.1,7.6,7.5,12.1c2.3,4.6,4.7,9.7,7,15.5l20.4,50.1
			c1.6,4.2,2.7,7.2,3.2,8.9C643.2,285.5,643.4,286.8,643.4,287.8z M597.9,128.1c0-8.9-2-16.4-6-22.6c-4-6.1-10.7-10.6-20-13.3
			c-2.9-0.8-6.2-1.4-9.9-1.8c-3.7-0.4-8.5-0.5-14.5-0.5H522v76.6h29.5c8,0,14.8-1,20.6-2.9c5.8-1.9,10.6-4.6,14.5-8.1
			c3.9-3.5,6.7-7.5,8.5-12.2C597,138.7,597.9,133.6,597.9,128.1z"/>
		<path d="M846.1,175.4c0,19.7-2.5,36.9-7.6,51.6c-5,14.7-12.4,26.9-22,36.5c-9.7,9.7-21.5,16.9-35.6,21.7
			c-14.1,4.8-30.8,7.2-50.2,7.2h-48.1c-2.7,0-5.2-0.9-7.6-2.7c-2.4-1.8-3.6-5-3.6-9.6V77.3c0-4.6,1.2-7.8,3.6-9.6
			c2.4-1.8,4.9-2.7,7.6-2.7H734c19.7,0,36.3,2.5,49.9,7.6c13.6,5.1,25,12.4,34.2,22c9.2,9.5,16.2,21.1,20.9,34.7
			C843.7,142.9,846.1,158.3,846.1,175.4z M814.3,176.6c0-12.3-1.5-23.7-4.6-34.3c-3-10.6-7.8-19.8-14.3-27.5s-14.7-13.8-24.7-18.1
			c-10-4.3-22.8-6.5-38.5-6.5h-30.7V267h31.1c14.5,0,26.8-1.8,36.7-5.4c10-3.6,18.3-9.2,24.9-16.7c6.7-7.5,11.7-16.9,15-28.2
			C812.6,205.4,814.3,192,814.3,176.6z"/>
		<path d="M1047.7,208.4c0,13.8-2,26.1-6.1,37c-4,10.8-9.8,20-17.3,27.5c-7.5,7.5-16.6,13.2-27.4,17
			c-10.8,3.9-23,5.8-36.7,5.8c-12.5,0-23.9-1.8-34.3-5.4c-10.3-3.6-19.1-9-26.5-16.1c-7.4-7.1-13.1-16-17-26.6c-4-10.7-6-22.9-6-36.9
			v-141c0-0.9,0.2-1.8,0.7-2.5c0.5-0.7,1.3-1.3,2.5-1.7c1.2-0.4,2.7-0.8,4.6-1.1c1.9-0.3,4.3-0.4,7.4-0.4c2.8,0,5.2,0.1,7.2,0.4
			c2,0.3,3.5,0.6,4.7,1.1c1.1,0.4,1.9,1,2.4,1.7c0.5,0.7,0.7,1.5,0.7,2.5V207c0,10.5,1.3,19.7,3.9,27.6c2.6,7.8,6.3,14.4,11.2,19.6
			c4.9,5.2,10.7,9.1,17.6,11.8c6.9,2.6,14.5,4,23.1,4c8.8,0,16.6-1.3,23.4-3.9c6.9-2.6,12.6-6.4,17.4-11.6
			c4.7-5.2,8.4-11.5,10.9-19.1c2.5-7.6,3.8-16.5,3.8-26.7V69.6c0-0.9,0.2-1.8,0.7-2.5c0.5-0.7,1.3-1.3,2.5-1.7
			c1.2-0.4,2.7-0.8,4.7-1.1c1.9-0.3,4.4-0.4,7.3-0.4c2.8,0,5.2,0.1,7.1,0.4c1.9,0.3,3.5,0.6,4.6,1.1c1.1,0.4,1.9,1,2.5,1.7
			c0.5,0.7,0.8,1.5,0.8,2.5V208.4z"/>
		<path d="M1122,287.8c0,0.9-0.2,1.8-0.7,2.5c-0.5,0.7-1.3,1.3-2.5,1.7c-1.2,0.4-2.7,0.8-4.7,1.1
			c-1.9,0.3-4.4,0.4-7.3,0.4c-2.8,0-5.2-0.1-7.2-0.4c-2-0.3-3.6-0.6-4.7-1.1c-1.2-0.4-2-1-2.5-1.7c-0.5-0.7-0.7-1.5-0.7-2.5V69.6
			c0-0.9,0.3-1.8,0.8-2.5c0.5-0.7,1.4-1.3,2.6-1.7c1.2-0.4,2.8-0.8,4.7-1.1c1.9-0.3,4.2-0.4,6.9-0.4c2.9,0,5.4,0.1,7.3,0.4
			c1.9,0.3,3.5,0.6,4.7,1.1c1.2,0.4,2,1,2.5,1.7c0.5,0.7,0.7,1.5,0.7,2.5V287.8z"/>
		<path d="M1338.4,279.9c0,2.3-0.4,4.3-1.2,6c-0.8,1.6-1.8,3-3.1,4c-1.3,1.1-2.7,1.8-4.3,2.3s-3.1,0.7-4.7,0.7h-10
			c-3.2,0-5.9-0.3-8.3-1c-2.4-0.6-4.6-1.8-6.7-3.5c-2.1-1.7-4.2-4-6.4-6.9c-2.1-2.9-4.4-6.7-6.7-11.2l-69.3-129.3
			c-3.6-6.7-7.3-13.7-11-21c-3.7-7.3-7.1-14.4-10.3-21.3h-0.4c0.2,8.4,0.4,17,0.5,25.8c0.1,8.8,0.2,17.5,0.2,26.2v137.2
			c0,0.8-0.2,1.6-0.7,2.4c-0.5,0.8-1.3,1.3-2.5,1.8c-1.2,0.4-2.7,0.8-4.6,1.1c-1.9,0.3-4.4,0.4-7.3,0.4c-3,0-5.4-0.1-7.3-0.4
			c-1.9-0.3-3.4-0.6-4.5-1.1c-1.1-0.4-1.9-1-2.4-1.8c-0.5-0.8-0.7-1.6-0.7-2.4V78.1c0-4.7,1.3-8,4-10c2.7-2,5.6-3,8.7-3h14.9
			c3.5,0,6.4,0.3,8.8,0.9c2.4,0.6,4.5,1.6,6.3,2.9c1.9,1.3,3.7,3.2,5.4,5.6c1.8,2.4,3.6,5.4,5.5,9l53.3,99.8c3.3,6.1,6.5,12,9.5,17.8
			c3.1,5.8,6,11.5,8.8,17.1c2.8,5.6,5.6,11.2,8.4,16.6c2.8,5.4,5.5,10.9,8.2,16.4h0.2c-0.2-9.2-0.4-18.9-0.4-28.9
			c-0.1-10-0.1-19.6-0.1-28.9V70.1c0-0.8,0.2-1.6,0.7-2.3c0.5-0.7,1.3-1.3,2.5-1.8s2.7-0.9,4.6-1.1c1.9-0.2,4.4-0.4,7.5-0.4
			c2.7,0,5.1,0.1,7,0.4c2,0.2,3.5,0.6,4.6,1.1c1.1,0.5,1.9,1.1,2.4,1.8c0.5,0.7,0.7,1.5,0.7,2.3V279.9z"/>
		<path d="M1573.4,176.1c0,18.4-2.2,35-6.5,49.7c-4.3,14.8-10.8,27.3-19.4,37.7c-8.6,10.4-19.4,18.3-32.4,23.9
			s-28.2,8.3-45.5,8.3c-17.1,0-31.9-2.5-44.4-7.6c-12.5-5.1-22.8-12.5-30.9-22.2c-8.1-9.7-14.2-21.8-18.2-36.2c-4-14.4-6-31-6-49.7
			c0-17.9,2.2-34.2,6.5-48.8c4.3-14.6,10.8-27.1,19.5-37.3c8.7-10.2,19.5-18.1,32.5-23.7c13-5.6,28.2-8.3,45.5-8.3
			c16.7,0,31.3,2.5,43.7,7.6c12.4,5,22.7,12.4,31,22c8.3,9.7,14.4,21.6,18.4,35.8S1573.4,157.7,1573.4,176.1z M1541.4,178.2
			c0-12.9-1.1-24.9-3.4-35.9s-6.1-20.7-11.4-28.8c-5.3-8.1-12.4-14.5-21.3-19.1s-19.9-6.9-33-6.9c-13.1,0-24.1,2.5-33,7.4
			c-8.9,4.9-16.1,11.5-21.7,19.7c-5.6,8.2-9.5,17.8-11.9,28.7c-2.4,11-3.6,22.5-3.6,34.5c0,13.3,1.1,25.6,3.3,36.9
			c2.2,11.2,6,20.9,11.2,29.1c5.3,8.1,12.3,14.5,21.1,19c8.8,4.5,19.9,6.8,33.2,6.8c13.2,0,24.3-2.5,33.3-7.4
			c9-4.9,16.3-11.6,21.8-19.9c5.5-8.4,9.4-18.1,11.8-29.1C1540.2,202.1,1541.4,190.5,1541.4,178.2z"/>
	</g>
	<g id="heart">
		<path fill="#B72036" d="M283.1,52.6c-7.3-7.4-25.7-22.7-50.6-22.6c-35.2,0.1-62.7,30.2-70.1,30.2c-7.3,0-44.8-52.6-104-19.1
			c-31.5,17.8-49,59.1-37.5,118.4c21.3,109.8,123.1,184,141.5,184c27.2,0,85.9-64.1,92.8-74.7c6.7-10.4-7-44-15.7-35.9
			c-4.9,4.6-8.2,13.1-25.6,32.1c-14,15.3-35.9,39.5-51.5,39.5c-18.7,0-91.6-70.3-103.9-152.6c-2.1-14.1-8-66,26.1-78.4
			c44.5-16.2,67.4,29.5,78.2,29.5c11,0,30.8-40.5,70.6-32.4c23.8,4.8,30.8,24.7,37.9,25.3C276,96.2,292.1,61.8,283.1,52.6z"/>
	</g>
</svg>
