<svg version="1.1" xmlns="http://www.w3.org/2000/svg" viewBox="0 0 500 500">
	<g fill="#6d7688">
		<path d="M407.2,342.5c-4-4-10.4-4-14.4,0c-4,4-4,10.4,0,14.4l19.8,19.8c4.7,4.7,7.3,11,7.3,17.7c0,6.7-2.6,13-7.3,17.7l-0.5,0.5c-4.7,4.7-11,7.3-17.7,7.3c-6.7,0-13-2.6-17.7-7.3l-19.8-19.8c-3.4-3.4-8.8-4-12.8-1.3c-18.5,12.3-38.8,20.7-60.4,25.1c-4.8,1-8.2,5.1-8.2,10v27.9c0,13.8-11.3,25.1-25.1,25.1h-0.7c-13.8,0-25.1-11.3-25.1-25.1v-27.9c0-4.8-3.4-9-8.2-10c-21.6-4.3-42-12.8-60.4-25.1c-4-2.7-9.4-2.2-12.8,1.3l-19.8,19.8c-4.7,4.7-11,7.3-17.7,7.3c-6.7,0-13-2.6-17.7-7.3l-0.5-0.5c-4.7-4.7-7.3-11-7.3-17.7c0-6.7,2.6-13,7.3-17.7l19.8-19.8c3.4-3.4,4-8.8,1.3-12.8c-12.3-18.5-20.7-38.8-25.1-60.4c-1-4.8-5.1-8.2-10-8.2H45.4c-13.8,0-25.1-11.3-25.1-25.1v-0.7c0-13.8,11.3-25.1,25.1-25.1h27.9c4.8,0,9-3.4,10-8.2c4.3-21.7,12.8-42,25.1-60.4c2.7-4,2.2-9.4-1.3-12.8l-19.8-19.8c-4.7-4.7-7.3-11-7.3-17.7s2.6-13,7.3-17.7l0.5-0.5c4.7-4.7,11-7.3,17.7-7.3c6.7,0,13,2.6,17.7,7.3l19.8,19.8c4,4,10.4,4,14.4,0c4-4,4-10.4,0-14.4L137.7,73c-8.6-8.6-20-13.3-32.1-13.3c-12.1,0-23.5,4.7-32.1,13.3L73,73.5c-8.6,8.6-13.3,20-13.3,32.1s4.7,23.5,13.3,32.1l14,14c-9.9,16.4-17.2,34-21.8,52.5H45.4C20.4,204.2,0,224.6,0,249.6v0.7c0,25,20.4,45.4,45.4,45.4h19.8c4.6,18.5,11.9,36.1,21.8,52.5l-14,14c-8.6,8.6-13.3,20-13.3,32.1c0,12.1,4.7,23.5,13.3,32.1l0.5,0.5c8.6,8.6,20,13.3,32.1,13.3s23.5-4.7,32.1-13.3l14-14c16.4,9.9,34,17.2,52.5,21.8v19.8c0,25.1,20.4,45.4,45.4,45.4h0.7c25.1,0,45.4-20.4,45.4-45.4v-19.8c18.5-4.6,36.1-11.9,52.5-21.8l14,14c8.6,8.6,20,13.3,32.1,13.3c12.1,0,23.5-4.7,32.1-13.3l0.5-0.5c8.6-8.6,13.3-20,13.3-32.1c0-12.1-4.7-23.5-13.3-32.1L407.2,342.5z"/>
		<path d="M454.6,204.2h-19.8c-4.6-18.5-11.9-36.1-21.8-52.5l14-14c17.7-17.7,17.7-46.5,0-64.2l-0.5-0.5c-8.6-8.6-20-13.3-32.1-13.3c-12.1,0-23.5,4.7-32.1,13.3l-14,14c-16.4-9.9-34-17.2-52.5-21.8V45.4c0-25.1-20.4-45.4-45.4-45.4h-0.7c-25.1,0-45.4,20.4-45.4,45.4v27.9c0,5.6,4.6,10.2,10.2,10.2c5.6,0,10.2-4.6,10.2-10.2V45.4c0-13.8,11.3-25.1,25.1-25.1h0.7c13.8,0,25.1,11.3,25.1,25.1v27.9c0,4.8,3.4,9,8.2,10c21.6,4.3,42,12.8,60.4,25.1c4,2.7,9.4,2.2,12.8-1.3l19.8-19.8c4.7-4.7,11-7.3,17.7-7.3c6.7,0,13,2.6,17.7,7.3l0.5,0.5c4.7,4.7,7.3,11,7.3,17.7c0,6.7-2.6,13-7.3,17.7l-19.8,19.8c-3.4,3.4-4,8.8-1.3,12.8c12.3,18.5,20.7,38.8,25.1,60.4c1,4.8,5.1,8.2,10,8.2h27.9c13.8,0,25.1,11.3,25.1,25.1v0.7c0,13.8-11.3,25.1-25.1,25.1h-27.9c-5.6,0-10.2,4.6-10.2,10.2s4.6,10.2,10.2,10.2h27.9c25.1,0,45.4-20.4,45.4-45.4v-0.7C500,224.6,479.6,204.2,454.6,204.2z"/>
		<path d="M250,288.3c-8.9,0-17.2-3-24.1-8.5c-4.4-3.5-10.8-2.9-14.3,1.5c-3.5,4.4-2.9,10.8,1.5,14.3c10.4,8.4,23.5,13.1,36.9,13.1c32.4,0,58.7-26.3,58.7-58.7c0-32.4-26.3-58.7-58.7-58.7s-58.7,26.3-58.7,58.7c0,5.6,4.6,10.2,10.2,10.2c5.6,0,10.2-4.6,10.2-10.2c0-21.1,17.2-38.3,38.3-38.3c21.1,0,38.3,17.2,38.3,38.3S271.1,288.3,250,288.3z"/>
	</g>
</svg>
