<svg version="1.1" xmlns="http://www.w3.org/2000/svg" viewBox="-226 274 500 500">
	<g fill="#6d7688">
		<path d="M248.6,325.8h-449.2c-14,0-25.4,11.4-25.4,25.4v276.5c0,14,11.4,25.4,25.4,25.4h147.4V706h-35.1c-4.5,0-8.1,3.6-8.1,8.1c0,4.5,3.6,8.1,8.1,8.1h224.6c4.5,0,8.1-3.6,8.1-8.1c0-4.5-3.6-8.1-8.1-8.1h-35.1V653h147.4c14,0,25.4-11.4,25.4-25.4V351.2C274,337.2,262.6,325.8,248.6,325.8z M85,706H-37V653H85V706z M257.8,627.7c0,5.1-4.1,9.2-9.2,9.2h-449.2c-5.1,0-9.2-4.1-9.2-9.2V351.2c0-5.1,4.1-9.2,9.2-9.2h449.2c5.1,0,9.2,4.1,9.2,9.2V627.7z"/>
		<path d="M231.3,360.4h-414.7c-4.5,0-8.1,3.6-8.1,8.1v241.9c0,4.5,3.6,8.1,8.1,8.1h414.7c4.5,0,8.1-3.6,8.1-8.1V368.5C239.4,364,235.8,360.4,231.3,360.4z M223.2,602.3h-398.5V376.6h398.5V602.3z"/>
		<path d="M-62.4,575.3c19.1,0,36.8-6.3,51.1-16.9c0.1-0.1,0.3-0.2,0.4-0.3c0.3-0.2,0.5-0.4,0.7-0.6c20.4-15.7,33.6-40.4,33.6-68.1c0-47.3-38.5-85.9-85.9-85.9s-85.9,38.5-85.9,85.9S-109.7,575.3-62.4,575.3z M-131.6,497.5h65.1l39.1,52.1c-10.3,6-22.3,9.5-35,9.5C-98.1,559.1-127.5,532.1-131.6,497.5z M7.3,489.4c0,19.8-8.3,37.7-21.7,50.4l-39.9-53.1v-66.5C-19.7,424.3,7.3,453.8,7.3,489.4z M-70.5,420.3v61.1h-61.1C-127.8,449.4-102.4,424-70.5,420.3z"/>
		<path d="M49.9,428.4h103.7c4.5,0,8.1-3.6,8.1-8.1c0-4.5-3.6-8.1-8.1-8.1H49.9c-4.5,0-8.1,3.6-8.1,8.1C41.8,424.8,45.4,428.4,49.9,428.4z"/>
		<path d="M188.1,481.3h-95c-4.5,0-8.1,3.6-8.1,8.1c0,4.5,3.6,8.1,8.1,8.1h95c4.5,0,8.1-3.6,8.1-8.1C196.2,485,192.6,481.3,188.1,481.3z"/>
		<path d="M49.9,497.5h8.6c4.5,0,8.1-3.6,8.1-8.1c0-4.5-3.6-8.1-8.1-8.1h-8.6c-4.5,0-8.1,3.6-8.1,8.1C41.8,493.9,45.4,497.5,49.9,497.5z"/>
		<path d="M188.1,515.9h-95c-4.5,0-8.1,3.6-8.1,8.1s3.6,8.1,8.1,8.1h95c4.5,0,8.1-3.6,8.1-8.1S192.6,515.9,188.1,515.9z"/>
		<path d="M49.9,532.1h8.6c4.5,0,8.1-3.6,8.1-8.1s-3.6-8.1-8.1-8.1h-8.6c-4.5,0-8.1,3.6-8.1,8.1S45.4,532.1,49.9,532.1z"/>
		<path d="M188.1,550.5h-95c-4.5,0-8.1,3.6-8.1,8.1c0,4.5,3.6,8.1,8.1,8.1h95c4.5,0,8.1-3.6,8.1-8.1C196.2,554.1,192.6,550.5,188.1,550.5z"/>
		<path d="M49.9,566.7h8.6c4.5,0,8.1-3.6,8.1-8.1c0-4.5-3.6-8.1-8.1-8.1h-8.6c-4.5,0-8.1,3.6-8.1,8.1C41.8,563,45.4,566.7,49.9,566.7z"/>
		<path d="M49.9,463h138.2c4.5,0,8.1-3.6,8.1-8.1s-3.6-8.1-8.1-8.1H49.9c-4.5,0-8.1,3.6-8.1,8.1S45.4,463,49.9,463z"/>
	</g>
</svg>
