<svg version="1.1" xmlns="http://www.w3.org/2000/svg" viewBox="0 0 500 500">
	<path fill="#6d7688" d="M350.1,21.6c-37.3,0-72.5,13.6-100.1,38.3c-27.5-24.8-62.8-38.3-100.1-38.3C67.2,21.6,0,88.8,0,171.5C0,223.8,28.4,286,79.9,346.9c47.4,56,108.1,103.6,166.7,130.8c1.1,0.5,2.2,0.8,3.4,0.8s2.3-0.3,3.4-0.8c58.6-27.2,119.4-74.8,166.7-130.8C471.6,286,500,223.8,500,171.5C500,88.8,432.8,21.6,350.1,21.6z M149.9,37.8c35.6,0,69.1,13.9,94.4,39c3.2,3.2,8.3,3.2,11.4,0c25.2-25.2,58.8-39,94.4-39c73.7,0,133.7,60,133.7,133.7c0,17.9-3.7,37.3-10.9,57.4h-102c-3.8,0-7.1,2.6-7.9,6.3l-9.6,43.2L327,166.1c-0.9-3.6-4.1-6.2-7.8-6.2c0,0,0,0-0.1,0c-3.7,0-7,2.5-7.9,6.1l-15.7,63h-97.3c-3.8,0-7.1,2.6-7.9,6.3l-9.6,43.2l-26.4-112.4c-0.9-3.6-4.1-6.2-7.8-6.2c0,0,0,0-0.1,0c-3.7,0-7,2.5-7.9,6.1l-15.7,63H27.1c-7.2-20.2-10.9-39.5-10.9-57.4C16.2,97.8,76.2,37.8,149.9,37.8z M407.8,336.4c-44.3,52.3-103,98.8-157.8,125c-54.7-26.1-113.5-72.6-157.8-125c-26.1-30.8-45.9-61.7-58.7-91.3H129c3.7,0,7-2.5,7.9-6.1l9.2-36.7L173,316.7c0.9,3.7,4.1,6.2,7.9,6.2c0,0,0,0,0.1,0c3.8,0,7-2.7,7.9-6.3l15.9-71.4H302c3.7,0,7-2.5,7.9-6.1l9.2-36.7L346,316.8c0.9,3.7,4.1,6.2,7.9,6.2c0,0,0,0,0.1,0c3.8,0,7-2.7,7.9-6.3l15.9-71.4h89.1C453.7,274.7,433.8,305.6,407.8,336.4z"/>
</svg>
