<svg version="1.1" xmlns="http://www.w3.org/2000/svg" viewBox="0 0 500 500">
	<g fill="#6d7688">
		<path d="M250,0C112.1,0,0,112.1,0,250s112.1,250,250,250c64.9,0,126.5-24.8,173.2-69.8c4.1-3.9,4.2-10.3,0.3-14.4c-3.9-4-10.3-4.2-14.4-0.3c-43,41.3-99.5,64.1-159.1,64.1c-126.6,0-229.7-103-229.7-229.6S123.4,20.3,250,20.3s229.6,103,229.6,229.6c0,28.6-5.2,56.4-15.4,82.8c-2,5.2,0.6,11.1,5.8,13.2c5.2,2,11.1-0.6,13.2-5.8c11.1-28.7,16.8-59.1,16.8-90.2C500,112.1,387.9,0,250,0z"/>
		<path d="M284.3,271.6c-4-3.9-10.5-3.9-14.4,0.2c-3.9,4-3.9,10.5,0.2,14.4l80.1,78.4c2,1.9,4.5,2.9,7.1,2.9c2.6,0,5.3-1,7.3-3.1c3.9-4,3.9-10.5-0.2-14.4L284.3,271.6z"/>
		<path d="M212.3,226.7c2,2,4.6,3,7.2,3s5.2-1,7.2-3c4-4,4-10.4,0-14.4L150,135.6c-4-4-10.4-4-14.4,0c-4,4-4,10.4,0,14.4L212.3,226.7z"/>
		<path d="M364.4,135.6c-4-4-10.4-4-14.4,0L135.6,350c-4,4-4,10.4,0,14.4c2,2,4.6,3,7.2,3s5.2-1,7.2-3L364.4,150C368.4,146,368.4,139.5,364.4,135.6z"/>
	</g>
</svg>
