<svg version="1.1" xmlns="http://www.w3.org/2000/svg" viewBox="0 0 500 500">
	<path fill="#6d7688" d="M130.2,32.1c-0.4,0-0.9,0-1.3,0.1c0,0-0.1,0-0.1,0c-0.4,0.1-0.8,0.1-1.1,0.2c-0.1,0-0.2,0.1-0.3,0.1c-0.3,0.1-0.6,0.2-0.9,0.3c-0.1,0-0.2,0.1-0.3,0.1c-0.4,0.2-0.8,0.3-1.1,0.6c-0.4,0.2-0.7,0.4-1,0.7c-0.1,0.1-0.2,0.1-0.3,0.2c-0.3,0.2-0.5,0.4-0.7,0.6c-0.1,0.1-0.2,0.2-0.2,0.2c-0.3,0.3-0.5,0.6-0.8,0.9c0,0-0.1,0.1-0.1,0.1c-0.3,0.3-0.5,0.7-0.7,1.1c0,0,0,0.1-0.1,0.1L1.4,244.8c0,0,0,0.1,0,0.1c-0.2,0.4-0.4,0.8-0.6,1.1c0,0,0,0.1,0,0.1c-0.1,0.4-0.3,0.7-0.4,1.1c0,0.1-0.1,0.2-0.1,0.3c-0.1,0.3-0.1,0.6-0.2,1c0,0.1,0,0.2,0,0.3c0,0.4-0.1,0.8-0.1,1.3s0,0.8,0.1,1.3c0,0.1,0,0.2,0,0.3c0,0.3,0.1,0.6,0.2,1c0,0.1,0.1,0.2,0.1,0.3c0.1,0.4,0.2,0.7,0.4,1.1c0,0,0,0.1,0,0.1c0.2,0.4,0.4,0.8,0.6,1.1c0,0,0,0.1,0,0.1l119.7,207.4c0,0,0,0.1,0.1,0.1c0.2,0.4,0.4,0.7,0.7,1.1c0,0,0,0,0,0c0.2,0.3,0.5,0.6,0.8,0.9c0.1,0.1,0.2,0.2,0.2,0.2c0.2,0.2,0.5,0.4,0.7,0.6c0.1,0.1,0.2,0.1,0.3,0.2c0.3,0.2,0.6,0.5,1,0.7c0,0,0,0,0.1,0c0,0,0,0,0,0c0.4,0.2,0.7,0.4,1.1,0.5c0.1,0,0.2,0.1,0.3,0.1c0.3,0.1,0.6,0.2,0.9,0.3c0.1,0,0.2,0.1,0.3,0.1c0.4,0.1,0.7,0.2,1.1,0.2c0,0,0.1,0,0.1,0c0.4,0.1,0.9,0.1,1.3,0.1c0,0,0.1,0,0.1,0h239.5c0,0,0.1,0,0.1,0c0.4,0,0.9,0,1.3-0.1c0,0,0.1,0,0.1,0c0.4-0.1,0.8-0.1,1.1-0.2c0.1,0,0.2-0.1,0.3-0.1c0.3-0.1,0.6-0.2,0.9-0.3c0.1,0,0.2-0.1,0.3-0.1c0.4-0.2,0.8-0.3,1.1-0.6c0,0,0,0,0,0c0.4-0.2,0.8-0.5,1.1-0.8c0.2-0.2,0.4-0.3,0.6-0.5c0.2-0.1,0.3-0.3,0.5-0.4c0.2-0.2,0.4-0.5,0.6-0.7c0.1-0.1,0.2-0.2,0.3-0.3c0.2-0.3,0.4-0.5,0.6-0.8c0.1-0.1,0.1-0.2,0.2-0.3l0-0.1c0,0,0,0,0,0l84.3-146.1c2.9-5,1.2-11.4-3.8-14.3S448,301,445.1,306l-75.3,130.4l-24.3-42.1l77.2-133.8h66.8c0,0,0.1,0,0.1,0c0.2,0,0.5,0,0.7,0c0.1,0,0.3,0,0.4,0c0.2,0,0.4-0.1,0.6-0.1c0.1,0,0.3,0,0.4-0.1c0.2,0,0.3-0.1,0.5-0.1c0.2,0,0.3-0.1,0.5-0.1c0.1,0,0.3-0.1,0.4-0.1c0.2-0.1,0.4-0.1,0.6-0.2c0.1-0.1,0.2-0.1,0.3-0.2c0.2-0.1,0.4-0.2,0.6-0.3c0,0,0.1,0,0.1-0.1c0.1,0,0.1-0.1,0.2-0.1c0.3-0.2,0.6-0.4,0.9-0.6c0.1-0.1,0.2-0.1,0.3-0.2c0.3-0.3,0.6-0.5,0.9-0.8c0.1-0.1,0.1-0.2,0.2-0.2c0.2-0.2,0.4-0.4,0.6-0.7c0.1-0.1,0.2-0.2,0.3-0.4c0.2-0.2,0.3-0.5,0.5-0.8c0.1-0.1,0.1-0.2,0.2-0.3c0.2-0.4,0.4-0.7,0.5-1.1c0-0.1,0-0.1,0.1-0.2c0.1-0.3,0.2-0.7,0.3-1c0-0.1,0.1-0.2,0.1-0.3c0.1-0.3,0.1-0.6,0.2-0.9c0-0.1,0-0.2,0.1-0.3c0-0.4,0.1-0.8,0.1-1.2c0,0,0-0.1,0-0.1c0-0.1,0-0.1,0-0.2c0-0.3,0-0.7-0.1-1c0-0.1,0-0.3-0.1-0.4c0-0.3-0.1-0.6-0.2-0.8c0-0.1-0.1-0.3-0.1-0.4c-0.1-0.3-0.2-0.7-0.3-1c0-0.1,0-0.1-0.1-0.2c-0.2-0.4-0.4-0.8-0.6-1.1c0,0,0-0.1,0-0.1L378.8,37.3c-1.9-3.2-5.3-5.2-9.1-5.2L130.2,32.1C130.2,32.1,130.2,32.1,130.2,32.1zM315.1,383.8H184.6l24.2-42.2h81.9L315.1,383.8z M148.4,446.9l24.2-42.1h154.7l24.3,42.1H148.4z M231.2,260.5l-28.2,49.2l-28.4-49.2H231.2z M174.5,239.5l28.6-49.6l28.6,49.6H174.5z M191.1,168.9l-40.8,70.6h-48.7l65.1-112.8L191.1,168.9z M77.3,260.5l45.5,78.7c2.9,5,9.3,6.7,14.3,3.8s6.7-9.3,3.8-14.3l-39.4-68.2h48.7l40.5,70.2l-60.6,105.6L28.7,260.5H77.3z M220.9,320.6l28.8-50.1l29,50.1H220.9L220.9,320.6z M268.2,260.5h57.3l-28.6,49.6L268.2,260.5z M267.4,239.5l28.9-50.4l29.1,50.4H267.4zM349.7,239.5l-41.2-71.4l24.3-42.3l65.7,113.8L349.7,239.5L349.7,239.5z M289.8,158.4h-43.3c-5.8,0-10.5,4.7-10.5,10.5s4.7,10.5,10.5,10.5h31.2l-28.1,48.9l-64.7-112.1H314L289.8,158.4z M154.6,105.7L77.3,239.5H28.7L130.2,63.6L154.6,105.7zM333.3,373.3l-24.4-42.2l40.8-70.6h48.7L333.3,373.3z M471.3,239.5h-48.7l-77.8-134.8l14-24.4c0.9-1.6,1.4-3.4,1.4-5.2c0-3.6-1.9-7.2-5.3-9.1c-5-2.9-11.4-1.1-14.3,3.9L326,95.2H172.8l-24.3-42.1h215.3L471.3,239.5z"/>
</svg>
